<svg width="23" height="12" viewBox="0 0 23 12" fill="none" xmlns="http://www.w3.org/2000/svg">
<path d="M14.9508 7.96404C14.9093 7.98985 14.871 8.02907 14.8258 8.03991C14.051 8.2263 13.2807 8.43552 12.4987 8.58623C11.5029 8.77823 10.4983 8.92594 9.49621 9.0843C9.24228 9.12442 8.9827 9.12752 8.72679 9.1571C8.56525 9.17578 8.40673 9.22181 8.24508 9.23852C7.82363 9.28217 7.40141 9.31881 6.97902 9.35204C6.90547 9.35784 6.82925 9.32407 6.75476 9.32623C6.70915 9.32749 6.66496 9.37813 6.61928 9.37952C6.22286 9.39168 5.82618 9.40746 5.42976 9.4032C4.89073 9.39739 4.3496 9.40091 3.81363 9.35349C2.99605 9.28117 2.18489 9.1522 1.48783 8.66707C1.03125 8.34933 0.634763 7.9852 0.558182 7.38233C0.502827 6.94655 0.617698 6.55691 0.84744 6.2012C1.02089 5.93259 1.23205 5.68855 1.42015 5.42904C1.47221 5.3572 1.49476 5.26452 1.54341 5.18955C1.61883 5.07343 1.69054 4.94914 1.78905 4.85462C2.34431 4.32194 2.96225 3.86752 3.61183 3.45878C4.0927 3.15623 4.58054 2.86152 5.08305 2.59707C6.6895 1.75159 8.3585 1.06052 10.1264 0.62478C11.3078 0.333587 12.5028 0.11249 13.7171 0.0391353C14.4501 -0.00515502 15.1878 0.0268772 15.9235 0.0301998C16.5192 0.0328772 17.1149 0.0443289 17.7106 0.0510709C18.8028 0.0634257 19.8813 0.18049 20.9293 0.500426C21.4535 0.660393 21.9441 0.889619 22.3354 1.2932C22.7853 1.7572 22.9289 2.5822 22.6384 3.1612C22.4054 3.62727 22.0577 4.02635 21.6279 4.32085C21.3998 4.47891 21.1633 4.6273 20.9512 4.80472C20.7704 4.95601 20.6305 5.15572 20.4522 5.31059C20.1736 5.55252 19.8732 5.76952 19.5917 6.00849C19.5015 6.08501 19.448 6.20301 19.3673 6.29272C19.1481 6.53643 18.9478 6.8053 18.6953 7.00884C18.3082 7.32094 17.8878 7.59272 17.4734 7.86962C17.2521 8.01749 17.0139 8.14004 16.7833 8.274C16.6159 8.28368 16.4733 8.34191 16.3739 8.48413C16.1051 8.60575 15.8367 8.72807 15.5674 8.84839C15.5094 8.8742 15.4483 8.89291 15.3892 8.9143C15.1731 9.00032 14.9565 9.08661 14.7394 9.17317C14.6678 9.22126 14.6022 9.28517 14.5237 9.3151C12.9461 9.91822 11.3306 10.4173 9.6877 10.809C8.65154 11.0553 7.61915 11.3219 6.57505 11.5286C5.65912 11.71 4.72954 11.8231 3.80515 11.9607C3.65741 11.9827 3.50515 11.9725 3.35531 11.9826C3.27394 11.9898 3.19197 11.9796 3.11487 11.9526C3.03777 11.9256 2.96732 11.8825 2.90821 11.8261C2.89291 11.8127 2.8759 11.8015 2.85763 11.7927C2.81028 11.7683 2.76218 11.7454 2.71434 11.722L2.84486 11.6263C2.83501 11.6163 2.82411 11.6074 2.81234 11.5997C2.76628 11.5763 2.71941 11.5545 2.67283 11.5321C2.72583 11.5001 2.77715 11.4434 2.83209 11.4397C4.68321 11.3134 6.46496 10.8289 8.25196 10.3802C10.3423 9.85526 12.4047 9.23575 14.415 8.45326C14.878 8.27307 15.3356 8.07794 15.7885 7.87384C16.1205 7.72294 16.4416 7.54928 16.7496 7.3541C16.5869 7.4091 16.425 7.46681 16.2612 7.51862C15.9161 7.62762 15.5697 7.73201 15.2251 7.84252C15.1788 7.85736 15.1403 7.89684 15.0983 7.92491L14.9508 7.96404ZM4.89079 3.90991C4.70989 3.9911 4.5225 4.06043 4.34921 4.15552C3.55779 4.58643 2.82957 5.12441 2.18512 5.75426C1.96144 5.97394 1.79086 6.24726 1.59244 6.49317C1.35397 6.78189 1.2156 7.14017 1.19809 7.51423C1.19263 7.62517 1.21821 7.76781 1.28657 7.84614C1.44286 8.02523 1.65815 8.12836 1.91079 8.19194C1.73854 7.87746 1.66583 7.56452 1.84602 7.26049C1.97214 7.04666 2.12603 6.85049 2.30367 6.67707C2.84138 6.15749 3.48754 5.7923 4.14512 5.44991C5.17676 4.91278 6.25954 4.49994 7.3677 4.15155C8.80373 3.69994 10.2679 3.37807 11.7656 3.21888C12.2841 3.16375 12.8043 3.12162 13.3248 3.08701C14.3807 3.0174 15.441 3.06264 16.4872 3.22191C17.0574 3.30804 17.6186 3.42514 18.161 3.64004C18.7126 3.85855 19.2133 4.11884 19.4831 4.68343C19.5159 4.7521 19.5539 4.77552 19.6288 4.73643C19.8079 4.64304 19.9933 4.56162 20.1702 4.46459C20.3144 4.38559 20.4804 4.31717 20.5831 4.19791C20.8165 3.93645 20.9557 3.60436 20.9783 3.25462C20.995 2.9732 20.9489 2.69107 20.7861 2.46949C20.5908 2.20391 20.3875 1.92072 20.0764 1.77865C19.9261 1.71004 19.867 1.50588 19.6667 1.52562C19.6506 1.52723 19.6301 1.47491 19.6096 1.44926C19.5463 1.36988 19.4109 1.39914 19.3674 1.28917C19.3588 1.29465 19.3495 1.29892 19.3398 1.30188C19.2973 1.30852 19.2491 1.32952 19.2129 1.31694C18.7775 1.16591 18.3466 1.00343 17.8923 0.911716C17.476 0.827652 17.0621 0.778619 16.6335 0.805845C16.3671 0.822748 16.0967 0.911845 15.8232 0.813006C15.7706 0.793974 15.6895 0.873812 15.6183 0.882619C15.1504 0.940683 14.6825 1.00323 14.2127 1.04172C13.7551 1.07917 13.3153 1.25355 12.8438 1.19885C12.7358 1.1863 12.5911 1.18552 12.4879 1.31349C12.4417 1.37068 12.3108 1.29507 12.203 1.3502C12.0878 1.40914 11.9318 1.3882 11.7936 1.40246C11.7889 1.40294 11.7849 1.40843 11.7801 1.40959C11.4763 1.48168 11.183 1.59346 10.8855 1.67823C9.75902 1.99923 8.63712 2.33007 7.54308 2.75036C7.29657 2.84507 7.05531 2.95655 6.80338 3.0331C6.46686 3.13536 6.12138 3.20165 5.82544 3.41497C5.71479 3.49472 5.56679 3.52143 5.43834 3.57817C5.38967 3.60429 5.34327 3.63445 5.29963 3.66833L4.89079 3.90991ZM11.7119 3.84717L11.8026 3.73749C11.7623 3.73217 11.7301 3.71897 11.7037 3.72626C11.6449 3.74504 11.5871 3.76679 11.5305 3.79143L11.7176 3.84217C11.6789 3.8712 11.6422 3.92004 11.6004 3.92497C11.5211 3.93439 11.4351 3.90146 11.3585 3.91759C11.248 3.94085 11.1462 4.0062 11.0357 4.0292C10.1839 4.20662 9.32834 4.36668 8.47944 4.55672C8.14489 4.63162 7.82063 4.75926 7.49821 4.88023C6.95021 5.08581 6.37008 5.19988 5.84302 5.46472C5.79876 5.48694 5.74089 5.48126 5.69521 5.50168C5.52341 5.57855 5.35205 5.65691 5.18438 5.7423C5.02954 5.82114 4.8835 5.91762 4.72663 5.99162C4.57502 6.06307 4.41283 6.11097 4.25889 6.17762C3.84509 6.35623 3.5105 6.65504 3.16096 6.9272C2.96776 7.07755 2.80486 7.26913 2.64028 7.45301C2.55702 7.55424 2.48397 7.66344 2.42218 7.77904C2.35067 7.90088 2.41196 7.96507 2.53409 7.97904C2.89344 8.01997 3.25344 8.08872 3.61302 8.08872C5.30199 8.08943 6.97008 7.85088 8.63512 7.60104C9.56634 7.46133 10.4932 7.28959 11.4188 7.11555C12.9502 6.82762 14.4697 6.48652 15.9666 6.05001C17.0201 5.74278 18.0618 5.40197 19.0773 4.98346C19.2063 4.93026 19.193 4.88165 19.1169 4.79755C18.8635 4.51752 18.5319 4.34001 18.1931 4.21946C17.7579 4.06462 17.2926 3.99426 16.8413 3.88307C16.8091 3.87514 16.7882 3.82778 16.7578 3.8042C16.7215 3.77607 16.6808 3.75381 16.642 3.72901L16.5958 3.78504L16.7209 3.80807L16.6913 3.84704C16.611 3.83294 16.5276 3.79781 16.4508 3.80868C16.2097 3.84278 15.9784 3.76539 15.7395 3.76481C15.3331 3.76384 14.9266 3.72804 14.5202 3.70565C14.4135 3.69978 14.3073 3.68362 14.2006 3.68307C14.1051 3.68243 14.0094 3.69633 13.9139 3.70426C13.8429 3.7102 13.7716 3.71594 13.7007 3.72336C13.6343 3.73033 13.5498 3.76926 13.5053 3.74194C13.374 3.66107 13.2541 3.71149 13.1331 3.7442C13.0282 3.77259 12.9314 3.81817 12.8679 3.6793C12.8576 3.65691 12.8098 3.65026 12.778 3.64091C12.7741 3.63972 12.7514 3.67136 12.7551 3.67859C12.8192 3.80178 12.7106 3.7451 12.6733 3.75523C12.6223 3.76729 12.5707 3.77638 12.5187 3.78246C12.4302 3.79568 12.3416 3.80862 12.2529 3.82014C12.1453 3.8341 12.0212 3.81768 11.9341 3.8671C11.8374 3.92201 11.7828 3.8853 11.7119 3.84717ZM20.4348 0.922942C20.4101 0.946942 20.3824 0.994232 20.3611 0.991522C20.1524 0.964813 19.945 0.928877 19.7367 0.897974C19.6968 0.89474 19.6567 0.89433 19.6167 0.896748C19.6397 0.928911 19.6666 0.958101 19.6967 0.983651C19.8809 1.10465 20.0727 1.21462 20.2523 1.34188C20.8587 1.77149 21.2309 2.35288 21.3361 3.09065C21.3647 3.29084 21.3405 3.49855 21.3405 3.74323C21.7805 3.41704 22.1391 3.07791 22.3454 2.61465C22.4458 2.38884 22.4643 2.13504 22.3002 1.91859C21.9684 1.48123 21.4666 1.32449 20.9821 1.14152C20.7962 1.07136 20.5689 1.10394 20.4348 0.922942ZM14.7462 0.157168C12.6001 0.126393 9.20105 0.618458 5.29783 2.60314C4.30408 3.10216 3.36697 3.70676 2.5027 4.40646C6.19215 1.79033 10.2783 0.327813 14.7462 0.157168ZM2.7596 6.48549L2.77863 6.51891C2.98576 6.38575 3.18973 6.24736 3.4006 6.12039C4.1468 5.6711 4.92076 5.27407 5.7357 4.96691C6.45257 4.69672 7.17092 4.42046 7.90779 4.21597C8.83331 3.95917 9.77586 3.76114 10.7161 3.56149C11.1108 3.47762 11.5183 3.45375 11.9203 3.4051C12.1553 3.37668 12.3908 3.35249 12.6262 3.32768C12.8634 3.30272 13.1008 3.2793 13.3381 3.25539C13.1542 3.23462 12.9711 3.21691 12.7926 3.23794C12.2478 3.30214 11.7041 3.37588 11.1613 3.45562C9.74131 3.6642 8.33979 3.96088 6.98583 4.44152C6.18354 4.72636 5.39447 5.0512 4.6106 5.38413C3.94529 5.6632 3.32226 6.0339 2.7596 6.48549ZM17.0983 7.45162L17.0711 7.40878C16.8849 7.50917 16.7026 7.6181 16.5114 7.70817C16.0695 7.91636 15.6276 8.1253 15.1778 8.31559C14.6434 8.54168 14.1022 8.7522 13.5604 8.95994C13.4763 8.9922 13.3797 9.08775 13.2765 8.98226C13.2573 8.99343 13.2392 9.00626 13.2223 9.02062C13.1627 9.06346 13.1091 9.12543 13.0426 9.14643C12.0242 9.46686 11.0048 9.7839 9.9845 10.0976C9.8356 10.1436 9.68512 10.1847 9.53537 10.228C9.61806 10.2379 9.70189 10.2294 9.78092 10.2032C10.8661 9.8754 11.9509 9.54639 13.0354 9.21614C13.1427 9.18336 13.1905 9.1911 13.175 9.31884C13.1699 9.36101 13.199 9.40733 13.2124 9.45172C13.238 9.41294 13.2614 9.37279 13.2826 9.33146C13.3257 9.23601 13.305 9.12036 13.4501 9.06765C13.9996 8.8681 14.545 8.65747 15.0863 8.43575C15.4441 8.28907 15.7918 8.11742 16.143 7.95491C16.3716 7.8491 16.6006 7.74362 16.8253 7.62984C16.9217 7.58094 17.0076 7.51152 17.0983 7.45162ZM10.5478 7.48333L10.5572 7.52355C11.0235 7.43697 11.4909 7.35581 11.9559 7.26278C13.1837 7.01717 14.4082 6.75578 15.6111 6.40443C16.098 6.26223 16.5803 6.10423 17.0627 5.94707C17.3075 5.8673 17.5477 5.77326 17.7901 5.68604C17.8832 5.65252 17.9767 5.62001 18.07 5.58701C18.0645 5.57051 18.0589 5.55404 18.0533 5.53759C15.6109 6.41426 13.0977 7.01936 10.5478 7.48317V7.48333ZM11.2091 8.16617C13.2438 7.84117 15.2453 7.38875 17.16 6.60394C15.2169 7.26847 13.228 7.79054 11.2091 8.16601L11.2091 8.16617ZM18.9514 0.301974L18.9534 0.264232L17.5327 0.193264L17.5304 0.238813L18.9514 0.301974ZM9.0615 10.3473L9.07415 10.3949L9.33708 10.316C9.33399 10.3045 9.3309 10.293 9.32783 10.2815L9.0615 10.3473Z" fill="#212121"/>
</svg>
