<svg width="16" height="12" viewBox="0 0 16 12" fill="none" xmlns="http://www.w3.org/2000/svg">
<path d="M15.1882 4.92254C15.1882 4.91873 15.1784 4.91517 15.169 4.9086C15.1652 4.93229 15.1618 4.95319 15.1582 4.97594C15.1208 4.94983 15.0942 4.96855 15.0899 4.99437C15.0839 5.03006 15.0798 5.05572 15.0347 5.07012C15.0034 5.0801 14.9906 5.11572 14.9452 5.12064C14.9106 5.12433 14.8819 5.16269 14.8475 5.18088C14.8219 5.19445 14.7934 5.20285 14.7638 5.2055C14.7343 5.20814 14.7045 5.20497 14.6764 5.19619C14.7227 5.17771 14.7663 5.16468 14.7597 5.11344C14.7589 5.10672 14.7714 5.09767 14.7792 5.09117C14.8487 5.03342 14.9178 4.97529 14.9888 4.91892C15.0092 4.90183 15.0329 4.88832 15.0587 4.8791C15.1224 4.85885 15.1205 4.80451 15.1361 4.76129C15.1417 4.74571 15.1078 4.71422 15.1153 4.70445C15.1559 4.65132 15.1333 4.59804 15.1255 4.54449C15.1223 4.52253 15.116 4.50091 15.1134 4.4789C15.1138 4.44933 15.1111 4.4198 15.105 4.39073C15.0775 4.31884 15.0626 4.24354 15.0607 4.16753C15.0595 4.06053 15.0651 3.95436 15.0427 3.84593C15.023 3.75084 15.0062 3.65412 14.9893 3.55793C14.9633 3.40913 14.904 3.2718 14.8495 3.1314C14.8163 3.04584 14.7557 2.97665 14.7122 2.89785C14.6829 2.84385 14.6501 2.79149 14.6138 2.74106C14.4858 2.56622 14.3247 2.41512 14.1747 2.25626C14.1276 2.20639 14.0607 2.17226 14.0083 2.12582C13.8691 1.99768 13.7116 1.88675 13.54 1.79594C13.4918 1.77151 13.4454 1.74396 13.4 1.71545C13.357 1.68845 13.3165 1.65833 13.2749 1.62957C13.2021 1.64877 13.1797 1.58013 13.1319 1.5569C13.0564 1.52021 12.9886 1.4681 12.9094 1.4345C12.8179 1.39562 12.7154 1.37141 12.6351 1.31918C12.4948 1.22798 12.3279 1.19585 12.1757 1.13306C12.0493 1.08098 11.9186 1.03267 11.7866 0.98923C11.6831 0.955222 11.5911 0.89323 11.4731 0.900262C11.4638 0.900814 11.4451 0.890494 11.4455 0.886318C11.4496 0.841654 11.3897 0.861934 11.3802 0.832654C11.2885 0.825862 11.2069 0.787054 11.1214 0.76243C11.0353 0.73759 10.9427 0.737686 10.8601 0.698038C10.816 0.680559 10.768 0.672548 10.7199 0.674638C10.6459 0.674374 10.5783 0.633838 10.5027 0.65047C10.4436 0.60967 10.3743 0.637318 10.311 0.62695C10.248 0.613276 10.1837 0.605491 10.119 0.603718C9.94616 0.607318 9.77314 0.602062 9.60037 0.605734C9.42664 0.60943 9.25221 0.589102 9.07909 0.626062C9.00074 0.642862 8.91389 0.60883 8.83701 0.65047C8.71013 0.64495 8.58901 0.68119 8.46544 0.69259C8.34864 0.703366 8.23877 0.74779 8.11994 0.74155C8.04584 0.788278 7.95376 0.789022 7.87194 0.804358C7.7828 0.821038 7.69514 0.846886 7.60362 0.858046C7.51344 0.869038 7.4269 0.903382 7.33322 0.900958C7.28858 0.936718 7.2284 0.929158 7.17637 0.94447C7.11989 0.961102 7.0537 0.952702 6.9989 0.971782C6.94248 0.991438 6.88282 0.978478 6.83242 0.995062C6.76392 1.01762 6.69293 1.0205 6.62442 1.03709C6.552 1.05461 6.4781 1.06713 6.40525 1.08336C6.32128 1.10208 6.23626 1.1184 6.15432 1.14288C5.92472 1.21149 5.6952 1.28021 5.46714 1.35333C5.22366 1.42821 4.98469 1.51447 4.7512 1.61177C4.43234 1.74921 4.11872 1.89698 3.82893 2.08332C3.66466 2.18892 3.5052 2.29961 3.35053 2.41538C3.25216 2.48911 3.1617 2.57186 3.0668 2.64967C2.88349 2.79993 2.71352 2.96333 2.53856 3.12077L2.56688 3.15065C2.49824 3.15753 2.46693 3.20121 2.42821 3.24089C2.32981 3.34202 2.20922 3.42449 2.12421 3.53762C2.08355 3.58836 2.03892 3.63641 1.99064 3.68141C1.94426 3.72729 1.93152 3.79836 1.85842 3.82392C1.7672 3.99475 1.60034 4.12308 1.52584 4.30332C1.39333 4.44686 1.33538 4.62825 1.22717 4.78471C1.19022 4.83038 1.15898 4.87958 1.13402 4.93142C1.09963 5.01347 1.0594 5.09343 1.01357 5.17082C0.92165 5.33534 0.866183 5.5109 0.792236 5.68063C0.756156 5.76341 0.743196 5.85189 0.715916 5.93683C0.700716 5.98411 0.672903 6.02978 0.667916 6.07764C0.66069 6.14654 0.628583 6.21007 0.619756 6.2754C0.610343 6.34481 0.58117 6.40649 0.56429 6.4722C0.555383 6.50693 0.53229 6.53731 0.537116 6.57684C0.539783 6.59916 0.50717 6.63444 0.516556 6.64493C0.55005 6.68208 0.51389 6.69293 0.496316 6.7127C0.492428 6.71882 0.489807 6.72552 0.488583 6.73248C0.460156 6.81926 0.45949 6.91025 0.44181 6.99888C0.423143 7.09212 0.439143 7.18949 0.415676 7.28541C0.399676 7.35055 0.41493 7.42152 0.41173 7.4897C0.407323 7.5312 0.40046 7.57246 0.39117 7.6133L0.467436 7.65782C0.441225 7.66836 0.416111 7.68099 0.392396 7.69555C0.37877 7.70744 0.368849 7.72233 0.363623 7.73875C0.40005 7.76534 0.35781 7.78826 0.360956 7.81284C0.364956 7.84277 0.357223 7.87421 0.36317 7.90361C0.36989 7.93687 0.335196 7.96085 0.339463 7.98504C0.346876 8.0268 0.330636 8.06597 0.326956 8.10427C0.32253 8.15049 0.372583 8.20495 0.31189 8.24546C0.359196 8.29447 0.330076 8.35308 0.33565 8.4071C0.340316 8.45225 0.333356 8.4983 0.337596 8.54357C0.34125 8.58254 0.362263 8.62142 0.359143 8.65927C0.356636 8.68958 0.33701 8.71584 0.37661 8.73847C0.38349 8.74241 0.38085 8.76348 0.378396 8.77596C0.37573 8.78937 0.36045 8.81124 0.363863 8.81352C0.403036 8.83992 0.389463 8.87753 0.385196 8.90805C0.379276 8.95176 0.401543 8.98577 0.41677 9.02246C0.429036 9.05193 0.454903 9.07915 0.457756 9.10867C0.459543 9.12732 0.431436 9.14028 0.45197 9.17304C0.487756 9.23023 0.486636 9.30343 0.53557 9.35784C0.51981 9.43075 0.56965 9.48948 0.59157 9.55346C0.61557 9.62349 0.635916 9.69885 0.69749 9.75233C0.73045 9.78096 0.74941 9.80913 0.741623 9.85041C0.739543 9.86148 0.735916 9.87885 0.742156 9.88363C0.805809 9.93237 0.811916 10.0138 0.86749 10.0646C0.939623 10.1305 0.968823 10.23 1.07016 10.2723C1.1356 10.3803 1.25258 10.4457 1.33888 10.5364C1.36685 10.5658 1.38928 10.6032 1.42421 10.6224C1.45808 10.6411 1.46706 10.6524 1.45989 10.6885C1.45557 10.7101 1.47973 10.7563 1.49498 10.7578C1.54426 10.7624 1.52533 10.8049 1.55234 10.8223C1.61552 10.8628 1.67178 10.912 1.73125 10.9573C1.73522 10.9603 1.74272 10.9595 1.75818 10.9621C1.76712 10.9498 1.77832 10.9345 1.78936 10.9194L1.82874 10.9542L1.73008 11.0112C1.80968 11.0124 1.87773 10.9993 1.88616 11.0744C1.93563 11.0889 1.9807 11.1136 2.01786 11.1464C2.05237 11.1802 2.08498 11.2232 2.15074 11.1999C2.15389 11.1988 2.17058 11.2379 2.1789 11.2373C2.20127 11.2325 2.22264 11.2245 2.24218 11.2136L2.29552 11.288C2.30757 11.2698 2.31669 11.256 2.32578 11.2422C2.34178 11.2729 2.37338 11.2379 2.37762 11.2458C2.41546 11.3162 2.49496 11.3184 2.56162 11.3394C2.60486 11.3553 2.65125 11.363 2.69792 11.362C2.7446 11.3611 2.79056 11.3515 2.83296 11.3339C2.8573 11.343 2.86762 11.3933 2.9173 11.3687C2.91544 11.3651 2.91308 11.3616 2.91029 11.3585C2.89328 11.345 2.87869 11.3276 2.90178 11.3125C2.91954 11.301 2.93784 11.3048 2.94445 11.332C2.9484 11.3483 2.96784 11.3616 2.986 11.3829C2.99314 11.3485 2.99741 11.3281 3.00562 11.2886L3.09141 11.3659C3.09144 11.3573 3.09325 11.3489 3.09674 11.3409C3.12032 11.3014 3.15008 11.3719 3.17578 11.3383C3.17744 11.3361 3.1924 11.3393 3.19237 11.3395C3.1897 11.3797 3.22821 11.3877 3.24837 11.3742C3.29525 11.3427 3.3092 11.3784 3.3325 11.3966L3.43752 11.3544C3.46501 11.3939 3.49053 11.3707 3.51856 11.3539C3.53989 11.3412 3.56256 11.3971 3.5865 11.355C3.61392 11.3916 3.63914 11.3517 3.66608 11.3521C3.7877 11.3539 3.90522 11.3226 4.02493 11.3108C4.0836 11.305 4.09976 11.2778 4.11784 11.2408C4.16765 11.2617 4.16765 11.2617 4.29842 11.2321C4.29632 11.2123 4.29434 11.1937 4.29237 11.1752C4.31008 11.1796 4.3274 11.1853 4.34418 11.1921C4.35246 11.197 4.35969 11.2031 4.36552 11.2103C4.45085 11.1854 4.53645 11.1654 4.5981 11.1054C4.60029 11.1033 4.6056 11.103 4.60946 11.103C4.63446 11.1062 4.65986 11.1056 4.68464 11.1012C4.70562 11.094 4.71789 11.0676 4.73874 11.0586C4.77047 11.047 4.80317 11.0378 4.83653 11.0309C4.84064 11.0058 4.84394 10.9854 4.84794 10.9609L4.92104 10.9874V10.9202H5.03229C5.10845 10.8481 5.12186 10.7425 5.21453 10.6869C5.21389 10.6504 5.27904 10.6227 5.23256 10.58L5.1253 10.7034V10.5749C5.18866 10.6046 5.18874 10.5283 5.23418 10.5326C5.22811 10.5186 5.22374 10.5042 5.22117 10.4894C5.22186 10.4743 5.22435 10.4594 5.22861 10.4448L5.24304 10.445C5.25605 10.4893 5.26905 10.5336 5.28205 10.5779C5.28851 10.5741 5.29441 10.5696 5.29962 10.5645C5.34107 10.5163 5.37926 10.4659 5.414 10.4136C5.44486 10.3602 5.48041 10.3091 5.52032 10.2609C5.5765 10.1945 5.60778 10.1116 5.65701 10.0398C5.68122 10.0045 5.68314 9.98018 5.65344 9.9558C5.68377 9.93912 5.71156 9.91895 5.7361 9.8958C5.76909 9.8518 5.79944 9.80623 5.82701 9.75931C5.85682 9.71349 5.88322 9.66552 5.91722 9.62251C5.96324 9.56627 6.02947 9.52609 6.10466 9.5088C6.12379 9.50511 6.14247 9.4997 6.1604 9.49265C6.18893 9.47904 6.15754 9.45962 6.15994 9.45391C6.16909 9.43214 6.18744 9.44124 6.20768 9.4511C6.22981 9.46188 6.25714 9.43853 6.25714 9.41333C6.25256 9.38184 6.18728 9.37704 6.21448 9.32841C6.24736 9.33535 6.28717 9.3563 6.31264 9.34663C6.3713 9.32436 6.34589 9.42408 6.41072 9.38467C6.39045 9.36941 6.36248 9.34387 6.3972 9.3282C6.44296 9.30744 6.42282 9.36518 6.44397 9.37085C6.48264 9.37085 6.52368 9.38179 6.54797 9.3683C6.5853 9.34747 6.6093 9.34075 6.64664 9.36643C6.65957 9.37533 6.69093 9.36377 6.71349 9.35981C6.73035 9.358 6.74592 9.35077 6.75732 9.33945C6.76873 9.32813 6.7752 9.31348 6.77554 9.2982C6.78869 9.31418 6.80352 9.32897 6.81984 9.34238C6.84472 9.35904 6.9005 9.33468 6.89821 9.38993C6.90887 9.39227 6.91993 9.39276 6.9308 9.39137C6.94552 9.38738 6.968 9.37063 6.97106 9.37349C7.00173 9.40171 7.04098 9.38906 7.07538 9.39677C7.09773 9.40178 7.11538 9.42403 7.13712 9.43997L7.15394 9.38652C7.2041 9.46365 7.28786 9.4764 7.376 9.51151L7.45093 9.44402C7.44157 9.46608 7.43418 9.48357 7.42402 9.50753C7.46581 9.53558 7.50749 9.57365 7.55789 9.59489C7.61922 9.62069 7.68856 9.63105 7.73173 9.68498C7.73483 9.68719 7.73838 9.68883 7.74218 9.6898C7.74599 9.69077 7.74996 9.69106 7.75389 9.69065C7.81229 9.68882 7.84314 9.76217 7.91056 9.73764C7.91221 9.73704 7.9201 9.75461 7.92749 9.76164C7.94336 9.77673 7.96677 9.80556 7.97666 9.80244C8.04421 9.78084 8.05917 9.84391 8.10077 9.86203C8.12744 9.87362 8.14189 9.90763 8.15872 9.92789L8.23872 9.89215C8.25327 9.9148 8.26964 9.93645 8.2877 9.95695C8.3001 9.96921 8.3084 9.99744 8.34288 9.97039C8.35861 9.95805 8.34733 10.0228 8.39157 10.0097C8.46592 10.0573 8.5625 10.0731 8.62197 10.1432C8.63434 10.1578 8.6673 10.1569 8.68429 10.17C8.71912 10.1968 8.7672 10.1861 8.8045 10.2143C8.84222 10.2397 8.8873 10.2548 8.93432 10.2577C8.95052 10.2589 8.96629 10.263 8.98072 10.2698C8.99514 10.2765 9.00793 10.2858 9.01834 10.2971C9.10109 10.3715 9.21181 10.4154 9.32872 10.4201C9.34968 10.4217 9.38154 10.4398 9.38872 10.4331C9.42178 10.4023 9.43786 10.4324 9.46234 10.4411C9.47208 10.4449 9.48257 10.4469 9.49318 10.4469C9.50379 10.4469 9.51429 10.4449 9.52402 10.4411C9.58138 10.406 9.64402 10.4241 9.70429 10.4199C9.74429 10.4171 9.78464 10.4254 9.82143 10.3981C9.84277 10.3821 9.87023 10.3742 9.89794 10.3761C9.94706 10.3847 9.95061 10.3324 9.96386 10.3325C10.0213 10.3329 10.0599 10.2989 10.1069 10.2821C10.1757 10.2577 10.2412 10.2258 10.3096 10.2005C10.3767 10.1794 10.4377 10.145 10.488 10.0997C10.5472 10.0401 10.6403 10.0409 10.704 9.98834C10.7508 9.94963 10.8118 9.92491 10.8679 9.93993C10.9159 9.89702 10.9525 9.85956 10.9948 9.82862C11.0146 9.81422 11.0497 9.8171 11.0707 9.8033C11.0917 9.7895 11.0978 9.7577 11.1189 9.74635C11.2867 9.65669 11.3728 9.50604 11.4626 9.36283C11.5444 9.22706 11.6155 9.08626 11.6753 8.94149C11.7109 8.85945 11.7092 8.76576 11.7727 8.69306C11.7768 8.68838 11.7727 8.67823 11.7733 8.67067C11.7797 8.59773 11.8053 8.52749 11.8012 8.45227C11.7992 8.41531 11.8351 8.37823 11.8233 8.33669C11.8176 8.31645 11.8003 8.29733 11.8003 8.27772C11.8003 8.25811 11.8181 8.23903 11.8232 8.21873C11.8355 8.17005 11.8024 8.12587 11.8005 8.0802C11.7928 7.905 11.8025 7.7298 11.7765 7.55421C11.7593 7.43863 11.772 7.3193 11.774 7.20168C11.7745 7.16993 11.7647 7.13822 11.7937 7.10568C11.802 7.09264 11.8066 7.07791 11.807 7.06285C11.8074 7.0478 11.8035 7.0329 11.7958 7.01954C11.7558 6.97661 11.8136 6.96689 11.8128 6.93871L11.8562 6.96698C11.8465 6.91629 11.8402 6.88298 11.833 6.84547C11.91 6.80928 11.921 6.72357 11.9756 6.66581C11.9591 6.63876 12.0099 6.61814 11.9845 6.5903C11.9818 6.5874 11.9786 6.58495 11.9673 6.57499C12.0241 6.58159 12.0502 6.5567 12.0719 6.51962C12.1038 6.45945 12.1521 6.40745 12.2121 6.36842C12.2207 6.36326 12.2224 6.34968 12.2288 6.34097C12.2513 6.31073 12.2691 6.27516 12.3184 6.27377C12.3166 6.26265 12.3147 6.25157 12.3124 6.23748C12.3585 6.22248 12.3988 6.19587 12.4286 6.16082C12.4684 6.11483 12.5213 6.07936 12.5817 6.05815C12.6031 6.04749 12.6227 6.03401 12.6396 6.01814C12.6186 6.00243 12.5951 5.98973 12.5698 5.98049C12.5515 5.97725 12.5299 5.98929 12.507 5.99529C12.5054 5.93256 12.5697 5.94009 12.5962 5.91384L12.6318 5.95598C12.6403 5.94632 12.6494 5.93707 12.659 5.92829C12.6692 5.91972 12.6812 5.91283 12.6979 5.90153C12.7003 5.91471 12.7044 5.92759 12.71 5.93993C12.7192 5.94911 12.7296 5.95718 12.7411 5.96393L12.8567 5.84933C12.8587 5.84988 12.875 5.85929 12.8827 5.85528C12.9136 5.83875 12.9431 5.82014 12.971 5.79962C12.9906 5.78546 13.0042 5.76057 13.0257 5.75359C13.0488 5.749 13.0727 5.74836 13.096 5.75169C13.1199 5.721 13.135 5.70151 13.151 5.68094C13.1702 5.70158 13.1659 5.74255 13.208 5.72762C13.2822 5.70122 13.3606 5.69095 13.4362 5.67242C13.4781 5.66208 13.5268 5.67777 13.554 5.65759C13.5976 5.62517 13.6503 5.65548 13.6826 5.63397C13.7269 5.60441 13.7703 5.62027 13.8137 5.61477C13.83 5.61269 13.8518 5.61885 13.8624 5.61134C13.9323 5.56197 14.0216 5.57306 14.1 5.55072C14.1557 5.53488 14.2185 5.53841 14.2672 5.5007C14.3374 5.51429 14.387 5.46777 14.4468 5.45085C14.4577 5.44776 14.4666 5.433 14.4761 5.43326C14.5638 5.43566 14.6298 5.37849 14.7106 5.36522C14.7645 5.35637 14.7852 5.31321 14.8256 5.29025C14.9803 5.20209 15.0058 5.20008 15.0908 5.07734C15.0943 5.07233 15.1044 5.07081 15.1115 5.06805C15.1847 5.04 15.1903 4.98273 15.1882 4.92254ZM1.9765 6.05964C1.96441 6.1113 1.94863 6.16222 1.92928 6.21206C1.90736 6.25766 1.89762 6.3077 1.87594 6.35126C1.85098 6.40166 1.85021 6.45463 1.8297 6.50445C1.7737 6.64037 1.74824 6.78408 1.70253 6.92273C1.69917 6.9329 1.70053 6.95049 1.69429 6.9528C1.65005 6.96907 1.68096 7.01858 1.65498 7.03238C1.60208 7.06065 1.63981 7.10875 1.6145 7.1442C1.5948 7.1718 1.60024 7.21397 1.5945 7.24963C1.56202 7.26146 1.54533 7.25155 1.55122 7.22083C1.5572 7.18963 1.55746 7.14941 1.57904 7.1303C1.62669 7.08806 1.5737 7.02653 1.6228 6.98921C1.59448 6.96197 1.58234 6.94433 1.63954 6.93101C1.65765 6.92681 1.6825 6.87264 1.67293 6.85855C1.63309 6.7998 1.68008 6.74757 1.68496 6.69535C1.68989 6.64272 1.7145 6.58677 1.72882 6.53162C1.74441 6.47725 1.76343 6.42372 1.78581 6.3713C1.81869 6.28881 1.83058 6.19989 1.87954 6.12233C1.82576 6.06902 1.91816 6.04281 1.90952 5.991C1.9029 5.95123 1.93909 5.90594 1.9553 5.86281C1.9728 5.81628 1.97981 5.7641 2.00797 5.72381C2.06882 5.63678 2.10586 5.54023 2.15837 5.45021C2.16901 5.43554 2.18125 5.42188 2.1949 5.40941C2.13762 5.6352 2.04498 5.84376 1.9765 6.05964ZM2.77602 5.61564C2.74909 5.68881 2.71888 5.7611 2.68701 5.83267C2.6548 5.90505 2.63256 5.97967 2.60845 6.05421C2.58384 6.1302 2.54386 6.20616 2.52202 6.2825C2.48872 6.399 2.4425 6.51175 2.41058 6.62837C2.38714 6.71395 2.34853 6.79514 2.32738 6.88224C2.30645 6.96842 2.28784 7.05569 2.26002 7.14089C2.22284 7.25277 2.20462 7.36906 2.206 7.48584C2.20283 7.53591 2.19232 7.58539 2.17474 7.63298C2.17031 7.64351 2.1683 7.65473 2.16882 7.66598C2.16935 7.67722 2.17241 7.68825 2.17781 7.69841C2.18848 7.72255 2.16517 7.75841 2.15826 7.78937C2.14805 7.83523 2.1716 7.88148 2.13626 7.92984C2.11021 7.96557 2.1409 8.01931 2.11186 8.06837C2.08973 8.10578 2.10746 8.16233 2.09717 8.21059C2.08901 8.1587 2.06352 8.10965 2.07466 8.05639C2.07488 8.05533 2.06842 8.05231 2.06474 8.05159C2.0569 8.05005 2.04874 8.04943 2.03541 8.04777C2.04288 8.03261 2.04962 8.01845 2.05674 8.00457C2.06702 7.98969 2.07508 7.97367 2.08074 7.95691C2.08314 7.94366 2.06885 7.92811 2.07061 7.9146C2.0849 7.80391 2.12413 7.69759 2.13728 7.5858C2.14718 7.53227 2.15405 7.47832 2.15786 7.42416C2.15816 7.36929 2.17794 7.31616 2.18885 7.26389C2.20184 7.20173 2.19386 7.13765 2.21234 7.07997C2.22658 7.02302 2.23414 6.96488 2.23488 6.9065C2.23592 6.86703 2.24469 6.82803 2.26077 6.7913C2.31144 6.69437 2.32893 6.58913 2.3637 6.48835C2.40104 6.38035 2.4537 6.27761 2.4653 6.16111C2.47277 6.08616 2.50989 6.01185 2.54402 5.94129C2.57816 5.87073 2.60328 5.79521 2.64229 5.72796C2.68264 5.65836 2.72762 5.59377 2.74264 5.51419C2.74653 5.49355 2.78312 5.47793 2.82605 5.44219C2.80554 5.51441 2.79426 5.56605 2.77602 5.61561V5.61564ZM6.92245 6.16843C6.91661 6.18326 6.93045 6.20443 6.93536 6.22265C6.87514 6.21984 6.90248 6.27122 6.88234 6.29131C6.8172 6.35633 6.78248 6.44136 6.70605 6.49937C6.67306 6.5244 6.65288 6.56268 6.62408 6.59277C6.60957 6.60442 6.59343 6.6143 6.57608 6.62217C6.5357 6.55689 6.56946 6.51036 6.62141 6.48667C6.66344 6.46747 6.67349 6.44553 6.69208 6.41081C6.71332 6.36901 6.7431 6.33118 6.77986 6.29928C6.84685 6.24648 6.87136 6.17057 6.92818 6.11402C6.932 6.11023 6.9244 6.09837 6.92512 6.0905C6.92512 6.0869 6.92592 6.08333 6.92747 6.08C6.92903 6.07668 6.9313 6.07366 6.93416 6.07113C6.93785 6.06994 6.94182 6.06963 6.94568 6.07024C6.94954 6.07085 6.95316 6.07235 6.95618 6.07459C6.96126 6.08417 6.96434 6.09451 6.96528 6.10509C6.97056 6.13745 6.93133 6.14597 6.92245 6.16841V6.16843ZM7.72368 5.94391C7.67874 5.98286 7.70365 6.04209 7.64802 6.08853H7.60066C7.60349 6.11942 7.60581 6.14496 7.6088 6.17774C7.59624 6.18782 7.58154 6.19549 7.5656 6.2003C7.54353 6.20088 7.52151 6.19816 7.50042 6.19226C7.47733 6.21242 7.52384 6.26465 7.47528 6.27305C7.41608 6.28329 7.46496 6.33206 7.42805 6.35282C7.39962 6.36878 7.39586 6.35083 7.38165 6.34461C7.3669 6.42559 7.3669 6.42559 7.28349 6.52425C7.25149 6.49284 7.25149 6.49293 7.28304 6.45614C7.28776 6.45049 7.29159 6.44428 7.29442 6.43769C7.33658 6.34135 7.33653 6.34133 7.40586 6.28776L7.32544 6.26894C7.30349 6.22461 7.34634 6.1968 7.35917 6.16135C7.408 6.17318 7.38656 6.12312 7.41085 6.11381C7.42693 6.10576 7.44459 6.10059 7.46285 6.09857C7.46874 6.09857 7.47456 6.12257 7.48469 6.14491C7.51669 6.10514 7.54485 6.06998 7.59088 6.0126L7.50141 6.0438V5.98886C7.54194 5.97305 7.58357 5.95322 7.5996 5.90575C7.6024 5.89745 7.62389 5.89425 7.63674 5.88871L7.65541 5.92913L7.71837 5.90652C7.72109 5.92389 7.72866 5.93964 7.72368 5.94389V5.94391Z" fill="#212121"/>
</svg>
