<svg width="22" height="25" viewBox="0 0 22 25" fill="none" xmlns="http://www.w3.org/2000/svg">
<path d="M9.77551 2.22225C9.79385 2.44708 9.93819 2.72752 9.50992 2.56885C9.28229 2.48454 9.1534 2.87228 8.84418 2.90854C8.6782 2.92797 8.40718 3.01946 8.19029 3.09362C8.04821 3.14225 7.86762 3.08504 7.81751 3.30416C7.80211 3.37165 7.75683 3.41939 7.69364 3.38168C7.37116 3.18924 7.16039 3.4606 6.92975 3.5912C5.98681 4.12454 5.07754 4.73209 4.28285 5.47057C3.14722 6.52574 2.0727 7.65679 1.16453 8.94054C1.14742 8.96466 1.13868 9.00492 1.1168 9.01432C0.911957 9.10181 1.15286 9.69654 0.675702 9.45368C0.0245024 9.12219 -0.124426 8.82638 0.122891 8.32352C0.41378 7.73222 0.730518 7.15279 1.06675 6.5879C2.28525 4.54066 3.98896 3.01781 5.98351 1.85C7.32673 1.06352 8.8077 0.677871 10.3458 0.563966C11.5317 0.476157 12.7187 0.456411 13.8872 0.740855C14.294 0.839903 14.7159 0.932664 15.082 1.12733C15.274 1.22943 15.4724 1.27971 15.646 1.36517C16.3203 1.69654 17.0949 1.84486 17.6235 2.47901C17.7525 2.63381 18.0217 2.61838 18.2244 2.75984C20.1371 4.09451 21.3424 5.9267 21.7051 8.27635C22.0593 10.5706 22.1423 12.8841 21.6126 15.1776C21.4935 15.6933 21.2606 16.1476 21.0326 16.6194C20.7708 17.1613 20.429 17.6657 20.2415 18.2478C20.2014 18.3723 20.1502 18.5149 20.06 18.597C19.5187 19.088 19.1419 19.729 18.6319 20.2509C18.0553 20.8306 17.4254 21.35 16.751 21.8016C16.2194 22.1657 15.7309 22.6045 15.2167 22.9943C14.5895 23.4699 13.8258 23.7029 13.0896 23.9675C12.4104 24.2116 11.7072 24.3294 11.0028 24.4512C10.8867 24.4712 10.7905 24.5421 10.7034 24.3987C10.6865 24.3766 10.6646 24.3592 10.6397 24.3479C10.6148 24.3367 10.5876 24.332 10.5605 24.3343C9.44943 24.7167 7.97109 24.3509 7.07752 23.8688C5.95454 23.263 4.92745 22.5037 4.11125 21.5082C3.45017 20.6969 2.98012 19.7367 2.73839 18.7038C2.54332 17.8934 2.32411 17.0924 2.18985 16.2657C2.00322 15.1165 2.3026 14.0901 2.8526 13.1219C3.31942 12.3112 3.82899 11.5278 4.37897 10.7755C4.92635 10.0174 5.73326 9.70035 6.53161 9.43698C7.49484 9.12071 8.50363 8.98072 9.51298 9.02327C10.1987 9.03884 10.8531 9.32453 11.3437 9.82251C12.0481 10.5215 12.5575 11.3587 12.9597 12.2733C13.2958 13.0377 13.3097 13.8751 13.4616 14.6807C13.4977 14.8722 13.3725 15.0096 13.1506 15.0256C12.9626 15.0392 12.8145 15.1214 12.889 15.3685C12.9186 15.3685 12.9327 15.3696 12.9466 15.3685C13.1282 15.3518 13.1538 14.9727 13.3825 15.1283C13.5896 15.2692 13.5339 15.5299 13.5162 15.7543C13.4417 16.6981 13.1056 17.523 12.4231 18.1591C11.8576 18.6861 11.3552 19.2737 10.5792 19.5502C9.01266 20.1084 8.23698 19.6352 7.0953 18.5376C6.72014 18.1769 6.60715 17.6674 6.43133 17.1935C5.90736 15.7807 6.93128 14.8328 8.07913 14.82C7.95508 15.3036 7.33388 15.205 7.12458 15.7064C7.51569 15.5836 7.76141 15.3457 8.05346 15.2057C8.18339 15.1434 8.41261 14.9789 8.46407 15.1486C8.52518 15.3501 8.8476 15.4319 8.6251 15.8309C8.38799 16.2563 8.12661 16.716 7.99797 17.2146C7.88846 17.6391 8.15387 17.9721 8.56136 17.9348C9.70181 17.8303 10.6848 17.3194 11.4778 16.5075C11.99 15.983 12.1295 15.2156 12.0724 14.4682C12.0125 13.6823 11.9778 12.8854 11.6653 12.1409C11.5714 11.9173 11.1325 11.1123 10.9395 10.9624C10.7924 10.8497 10.6132 10.7912 10.4305 10.7962C10.332 10.7967 10.1696 10.9055 10.1525 10.6522C10.1443 10.5316 9.93862 10.5276 9.93092 10.6242C9.9047 10.9483 9.6646 10.8671 9.512 10.8765C8.67417 10.9285 7.89396 11.2502 7.08332 11.4261C6.9124 11.4624 6.75426 11.5465 6.62596 11.6694C6.49767 11.7922 6.40408 11.9491 6.35531 12.1231C6.31543 12.285 6.21961 12.4259 6.08611 12.5191C5.42349 12.9381 5.2437 13.6716 4.92965 14.3286C4.74338 14.7182 4.39266 15.0068 4.26268 15.4516C4.05542 16.1668 4.0307 16.9257 4.19094 17.6539C4.36119 18.4576 4.55717 19.2646 4.88589 20.0186C5.3614 21.1094 6.27666 21.6497 7.31011 22.0339C7.71002 22.1826 8.17013 22.0965 8.54113 22.4118C8.59906 22.461 8.94312 22.2658 9.1817 22.242C11.446 22.0156 13.4728 21.1256 15.3884 19.8848C16.6193 19.0875 17.542 18.0037 18.3517 16.7859C19.5812 14.9365 19.9453 12.8328 19.9902 10.6496C20.0219 9.55162 19.9734 8.45276 19.8452 7.36244C19.6475 5.79368 18.8735 4.66651 17.5364 3.90517C16.9253 3.55724 16.2959 3.23635 15.6841 2.89406C15.4375 2.75603 15.057 2.55685 14.6201 2.65508C14.2405 2.74041 13.7923 2.51616 13.3578 2.5027C12.8905 2.48841 12.4316 2.29952 11.9538 2.43063C11.8305 2.46447 11.8029 2.42206 11.871 2.29374C11.8803 2.27782 11.8842 2.25906 11.882 2.24054C11.8797 2.22202 11.8715 2.20484 11.8586 2.19185C11.8457 2.17885 11.8289 2.17081 11.811 2.16904C11.7931 2.16727 11.7752 2.17189 11.7602 2.18212C11.3703 2.54562 10.8137 2.23051 10.3932 2.58289C10.1392 2.79527 10.0603 2.29051 9.77551 2.22225ZM7.82142 1.65641C6.56211 1.54117 2.58897 4.57165 2.01367 5.94003C3.71555 4.16879 5.52132 2.55165 7.82142 1.65641ZM11.9635 22.3454C12.3305 22.2268 12.7041 22.1264 13.0635 21.9866C14.5017 21.4267 15.764 20.5423 16.999 19.6189C17.1041 19.5403 17.3547 19.3176 17.1363 19.0324C15.6644 20.5762 13.8029 21.4296 11.9635 22.3454ZM9.65873 18.2541C9.84408 18.1948 10.027 18.125 10.2152 18.0779C10.8014 17.9312 11.1771 17.4409 11.6615 17.1284C11.7054 17.0996 11.7369 17.0542 11.7494 17.0018C11.7618 16.9494 11.7542 16.894 11.7283 16.8473C11.659 16.7286 11.5723 16.8131 11.5226 16.8798C11.0371 17.5307 10.3132 17.8068 9.65873 18.2541ZM6.42962 10.0704C5.93511 10.1148 5.54925 10.376 5.20697 10.7236C5.68192 10.6401 6.0335 10.311 6.42962 10.0704ZM7.38387 3.09216C7.22596 3.09216 7.11388 3.09812 7.00266 3.09063C6.85214 3.08054 6.76671 3.16936 6.70175 3.29012C6.674 3.34168 6.65604 3.42428 6.7188 3.44251C6.83399 3.4759 6.92945 3.41628 7.01653 3.32885C7.10496 3.24003 7.26898 3.29139 7.38387 3.09216Z" fill="#212121"/>
</svg>
